<svg width="800" height="800" viewBox="0 0 200 200" fill="none" xmlns="http://www.w3.org/2000/svg">
<g filter="url(#filter0_d)">
<path d="M100 189C149.153 189 189 149.153 189 100C189 50.8467 149.153 11 100 11C50.8467 11 11 50.8467 11 100C11 149.153 50.8467 189 100 189Z" fill="white"/>
<path d="M100 10C50.2888 10 10 50.2888 10 100C10 149.711 50.2888 190 100 190C149.711 190 190 149.711 190 100C190 50.2888 149.693 10 100 10ZM100 182.892C83.6029 182.894 67.5736 178.033 53.9392 168.924C40.3048 159.816 29.6777 146.868 23.402 131.72C17.1263 116.571 15.4838 99.902 18.6823 83.8199C21.8807 67.7378 29.7765 52.9654 41.3709 41.3709C52.9654 29.7765 67.7378 21.8807 83.8199 18.6823C99.902 15.4838 116.571 17.1263 131.72 23.402C146.868 29.6777 159.816 40.3048 168.924 53.9392C178.033 67.5736 182.894 83.6029 182.892 100C182.889 121.984 174.155 143.066 158.611 158.611C143.066 174.155 121.984 182.889 100 182.892V182.892Z" fill="#333333"/>
<path d="M99.9999 178.354C143.274 178.354 178.354 143.274 178.354 100C178.354 56.7263 143.274 21.6461 99.9999 21.6461C56.7263 21.6461 21.646 56.7263 21.646 100C21.646 143.274 56.7263 178.354 99.9999 178.354Z" fill="#333333"/>
<path d="M40.1163 61.7553H61.893V69.8929H48.4054V77.8513H61.893V85.8649H48.4054V105.612H40.1393L40.1163 61.7553Z" fill="#F9C800"/>
<path d="M161.615 83.3621H139.572V91.2011H152.27C151.045 93.7851 149.448 95.6832 147.48 96.8956C145.511 98.108 143.079 98.7203 140.183 98.7325C135.747 98.7325 132.016 97.2615 128.991 94.3193C127.528 92.9403 126.369 91.2709 125.589 89.418C124.808 87.5652 124.423 85.5698 124.459 83.5595C124.426 81.6126 124.798 79.6801 125.55 77.8841C126.303 76.0882 127.42 74.468 128.831 73.1258C131.742 70.2633 135.356 68.832 139.673 68.832C144.627 68.832 148.962 70.7991 152.678 74.7331L158.557 68.9193C155.875 66.02 153.133 63.9734 150.332 62.7794C146.946 61.3547 143.305 60.6343 139.632 60.6623C132.339 60.6623 126.418 63.2156 121.869 68.3223C120.941 69.3569 120.107 70.471 119.375 71.6517C118.443 70.115 117.338 68.6898 116.082 67.4038C111.619 62.9126 106.285 60.6669 100.083 60.6669C94.6991 60.6271 89.4774 62.5064 85.3537 65.9677C81.2301 69.429 78.4743 74.246 77.5804 79.5551V61.7553H69.2408V97.6395H57.0712V105.598H77.5758V88.0095C78.381 92.493 80.521 96.6289 83.7158 99.876C88.0693 104.425 93.5372 106.7 100.119 106.7C103.105 106.752 106.068 106.188 108.827 105.045C111.585 103.902 114.078 102.203 116.151 100.055C117.434 98.7417 118.557 97.2803 119.494 95.7016C121.452 99.0677 124.283 101.843 127.687 103.734C131.422 105.753 135.616 106.775 139.861 106.7C144.114 106.7 147.82 105.795 150.979 103.986C154.212 102.104 156.878 99.387 158.699 96.1195C160.649 92.8156 161.678 89.0494 161.679 85.2128L161.615 83.3621ZM110.232 94.3285C108.939 95.7073 107.373 96.8013 105.633 97.5406C103.893 98.28 102.019 98.6484 100.129 98.6223C96.7317 98.6596 93.4323 97.4877 90.82 95.3158C87.3391 92.4931 85.5986 88.6585 85.5986 83.8121C85.5986 79.4617 86.9763 75.8751 89.7317 73.0524C91.0753 71.7023 92.6739 70.6328 94.4347 69.9064C96.1954 69.1799 98.083 68.8108 99.9877 68.8206C101.892 68.8305 103.776 69.219 105.529 69.9636C107.282 70.7082 108.87 71.7941 110.2 73.158C112.896 76.0222 114.4 79.8062 114.405 83.7401C114.41 87.6739 112.916 91.4619 110.227 94.3331L110.232 94.3285Z" fill="#F9C800"/>
<path d="M138.043 150.465C137.625 150.961 137.211 151.466 136.784 151.953C135.796 153.082 134.722 154.132 133.57 155.094C132.666 155.883 131.489 156.287 130.291 156.219C129.865 156.191 129.451 156.065 129.082 155.85C128.713 155.634 128.399 155.336 128.165 154.979C127.594 154.174 127.231 153.24 127.108 152.26C126.73 150.074 126.998 147.825 127.88 145.79C129.111 142.998 130.36 140.219 131.604 137.436C131.629 137.371 131.629 137.3 131.604 137.234L131.425 137.45C128.725 140.872 126.052 144.316 123.306 147.696C122.553 148.61 121.485 149.208 120.312 149.372C119.811 149.377 119.314 149.301 118.838 149.147C118.75 149.147 118.672 149.032 118.603 148.954C117.831 148.024 117.367 146.876 117.276 145.67C117.153 144.538 117.191 143.394 117.391 142.272C117.395 142.209 117.395 142.147 117.391 142.084C116.932 142.635 116.551 143.145 116.133 143.641C114.792 145.342 113.273 146.894 111.6 148.27C111.015 148.787 110.314 149.156 109.557 149.344C109.208 149.449 108.836 149.44 108.492 149.319C108.149 149.199 107.853 148.973 107.646 148.674C107.314 148.212 106.95 147.773 106.558 147.36C106.113 146.887 105.798 146.307 105.643 145.676C105.488 145.046 105.497 144.386 105.671 143.76C106.065 142.047 106.671 140.39 107.476 138.828C107.527 138.727 107.577 138.621 107.623 138.52C107.628 138.481 107.628 138.441 107.623 138.401C107.316 138.644 107.035 138.86 106.764 139.081C104.242 141.119 101.892 143.361 99.7382 145.785C99.6238 145.947 99.4777 146.083 99.3087 146.187C99.1397 146.29 98.9515 146.357 98.7555 146.385C98.5594 146.413 98.3598 146.401 98.1687 146.349C97.9776 146.297 97.7991 146.207 97.6441 146.084C96.2871 145.138 95.2062 143.847 94.5122 142.346C94.2653 141.767 94.1981 141.127 94.3193 140.509C93.7407 141.248 93.1896 141.969 92.6247 142.676C91.2729 144.407 89.7914 146.033 88.1932 147.54C87.4487 148.225 86.6255 148.82 85.7409 149.312C85.0332 149.678 84.215 149.768 83.4447 149.565C83.1558 149.455 82.9063 149.262 82.7283 149.009C82.0854 148.256 81.4792 147.466 80.8409 146.713C80.5839 146.418 80.4104 146.06 80.3385 145.676C80.2666 145.291 80.299 144.895 80.4322 144.527C80.749 143.544 81.12 142.58 81.5435 141.638C83.2335 137.9 84.951 134.171 86.6593 130.438C86.7022 130.363 86.7169 130.275 86.7007 130.19C85.6031 131.522 84.4872 132.84 83.4034 134.185C80.8354 137.302 78.5501 140.642 76.5746 144.164C75.9225 145.363 75.3577 146.607 74.7377 147.838C74.6286 148.053 74.4715 148.24 74.2785 148.385C73.8193 148.692 73.36 148.959 72.9008 149.239C72.2963 149.604 71.5838 149.748 70.8848 149.647C70.6268 149.621 70.3785 149.535 70.1594 149.396C69.9402 149.258 69.7562 149.07 69.6219 148.848C69.1439 148.172 68.6207 147.53 68.0559 146.924C67.7332 146.622 67.5047 146.232 67.3979 145.803C67.2912 145.374 67.3108 144.923 67.4543 144.504C67.7708 143.511 68.1418 142.536 68.5657 141.583C70.4026 137.551 72.2395 133.533 74.0764 129.51C74.1343 129.401 74.1673 129.28 74.1729 129.157C73.2269 130.282 72.2762 131.398 71.344 132.532C68.6028 135.76 66.1315 139.208 63.955 142.842C63.0365 144.463 62.2191 146.157 61.342 147.81C61.2089 148.05 61.0237 148.258 60.8001 148.417C60.3409 148.729 59.8816 149 59.4224 149.271C58.8263 149.609 58.1352 149.739 57.4569 149.643C57.1938 149.616 56.9408 149.527 56.7188 149.384C56.4968 149.24 56.3122 149.045 56.1802 148.816C55.6873 148.126 55.1488 147.469 54.5683 146.851C54.2754 146.555 54.0665 146.186 53.9632 145.782C53.8599 145.379 53.8659 144.955 53.9805 144.555C54.28 143.444 54.6908 142.367 55.2067 141.34C57.1538 137.081 59.104 132.824 61.0572 128.569C61.4476 127.715 61.7553 126.828 62.164 125.983C62.4377 125.437 62.7589 124.916 63.1238 124.426C63.2323 124.258 63.3823 124.12 63.5595 124.026C63.7366 123.932 63.935 123.885 64.1355 123.889C64.336 123.894 64.532 123.95 64.7046 124.052C64.8772 124.154 65.0208 124.299 65.1214 124.472C65.6496 125.239 66.2374 125.974 66.6828 126.769C66.9352 127.2 67.0769 127.687 67.0953 128.186C67.1138 128.685 67.0083 129.181 66.7884 129.63C66.4927 130.234 66.1357 130.806 65.723 131.338C64.0487 133.565 62.7731 136.065 61.9527 138.727C61.2777 140.821 60.4557 142.86 59.7025 144.931C59.6566 145.06 59.6107 145.193 59.5648 145.321L59.6428 145.363C59.6933 145.271 59.753 145.184 59.799 145.092C62.0769 140.793 64.6775 136.672 67.5783 132.766C69.135 130.631 70.8727 128.633 72.7722 126.796C73.5621 126.057 74.4346 125.418 75.2796 124.72C75.8234 124.343 76.4395 124.082 77.089 123.953C77.3642 123.852 77.6672 123.854 77.9406 123.961C78.214 124.068 78.4388 124.271 78.5723 124.532C79.0591 125.23 79.5826 125.91 80.0143 126.626C80.2896 127.062 80.4515 127.559 80.4852 128.073C80.5189 128.588 80.4233 129.102 80.2072 129.57C79.889 130.231 79.5011 130.856 79.0499 131.434C77.4376 133.606 76.1962 136.03 75.3761 138.608C74.6734 140.757 73.8698 142.874 73.112 145.005C73.0667 145.102 73.0477 145.21 73.0569 145.317L73.236 144.991C75.6659 140.387 78.477 135.996 81.64 131.861C83.3036 129.636 85.1918 127.588 87.2747 125.749C87.9762 125.142 88.7469 124.619 89.5709 124.192C89.9132 123.99 90.3081 123.894 90.7052 123.917C90.8296 123.918 90.9521 123.948 91.0629 124.004C91.1738 124.061 91.2698 124.142 91.3435 124.243L92.6247 126.08C92.7396 126.24 92.859 126.397 92.9646 126.539C93.263 126.971 93.4433 127.473 93.4876 127.996C93.5319 128.518 93.4387 129.044 93.2172 129.519C92.8318 130.278 92.3702 130.995 91.8395 131.659C90.3292 133.771 89.1636 136.108 88.3861 138.585C87.6651 140.748 86.8568 142.888 86.0899 145.014C86.0653 145.058 86.0483 145.106 86.0394 145.156C86.0443 145.244 86.055 145.331 86.0715 145.418C86.1542 145.418 86.2598 145.418 86.3195 145.377C86.7115 145.107 87.0858 144.812 87.44 144.495C89.9076 142.101 92.3676 139.699 94.8199 137.29C94.8474 137.262 94.875 137.225 94.9071 137.202C95.7013 136.478 96.3282 135.59 96.744 134.598C97.9518 132.165 99.2377 129.767 100.473 127.343C100.893 126.543 101.569 125.907 102.393 125.538C104.773 124.31 107.438 123.741 110.112 123.889C110.505 123.889 110.894 123.97 111.254 124.128C111.613 124.286 111.936 124.518 112.202 124.808C113.014 125.65 113.676 126.625 114.158 127.692C114.365 128.215 114.617 128.72 114.838 129.299C114.626 129.218 114.42 129.121 114.222 129.01C113.455 128.504 112.707 127.963 111.926 127.471C111.42 127.131 110.884 126.839 110.323 126.599C109.258 126.176 108.285 126.493 107.802 127.517C106.351 130.644 104.349 133.487 102.962 136.637C102.278 138.199 101.612 139.769 100.941 141.335C100.914 141.4 100.9 141.469 100.854 141.62L102.204 140.399C104.39 138.43 106.575 136.461 108.758 134.493C108.9 134.358 109.022 134.203 109.12 134.034C109.616 133.212 110.094 132.385 110.594 131.563C110.722 131.341 110.876 131.136 111.054 130.952C111.252 130.738 111.507 130.585 111.789 130.508C112.07 130.432 112.368 130.436 112.647 130.52C113.285 130.71 113.862 131.061 114.323 131.54C114.874 132.091 114.714 132.72 114.461 133.326C114.149 134.079 113.777 134.81 113.451 135.558C112.216 138.402 111.185 141.33 110.365 144.32C110.286 144.523 110.25 144.74 110.259 144.957C110.268 145.174 110.321 145.387 110.415 145.583C110.68 145.415 110.935 145.231 111.178 145.032C112.381 143.925 113.589 142.819 114.764 141.68C115.94 140.541 117.171 139.283 118.369 138.079C118.465 137.987 118.545 137.878 118.603 137.758C120.11 134.47 121.588 131.168 123.122 127.894C124.757 124.399 126.479 120.95 128.087 117.442C128.558 116.285 129.094 115.157 129.694 114.062C129.897 113.713 130.127 113.382 130.383 113.07C130.498 112.956 130.636 112.868 130.787 112.811C130.939 112.754 131.1 112.729 131.262 112.738C131.423 112.746 131.581 112.789 131.725 112.861C131.87 112.934 131.997 113.037 132.1 113.162C132.656 113.947 133.239 114.718 133.74 115.536C134.017 115.96 134.177 116.449 134.204 116.955C134.232 117.46 134.125 117.964 133.896 118.415C132.977 120.319 132.024 122.211 131.035 124.091C129.147 127.701 127.182 131.274 125.345 134.911C124.376 136.826 123.6 138.837 122.755 140.816C122.263 141.91 121.902 143.059 121.68 144.238C121.641 144.482 121.63 144.73 121.648 144.977C121.648 145.317 121.905 145.487 122.204 145.321C122.677 145.065 123.121 144.757 123.526 144.403C124.969 143.047 126.296 141.574 127.494 139.999C130.286 136.559 132.851 132.94 135.172 129.166C135.675 128.251 136.119 127.306 136.504 126.337C138.295 122.323 140.109 118.323 141.84 114.287C142.291 113.157 142.812 112.057 143.402 110.994C143.592 110.662 143.81 110.347 144.054 110.053C144.168 109.926 144.309 109.826 144.466 109.761C144.623 109.696 144.793 109.666 144.963 109.674C145.133 109.683 145.3 109.729 145.45 109.809C145.6 109.89 145.73 110.003 145.831 110.14C146.382 110.916 146.961 111.678 147.452 112.491C147.723 112.924 147.879 113.419 147.903 113.929C147.927 114.439 147.819 114.946 147.59 115.403C146.672 117.354 145.753 119.297 144.835 121.23C142.612 125.758 140.398 130.295 138.116 134.796C136.546 137.891 134.902 140.94 133.492 144.123C132.493 146.271 131.704 148.51 131.136 150.809C130.917 151.62 130.841 152.462 130.911 153.298C131.021 154.185 131.526 154.552 132.399 154.341C133.285 154.081 134.114 153.656 134.842 153.087C135.931 152.331 136.943 151.469 137.864 150.515C137.905 150.474 137.955 150.437 137.997 150.396L138.043 150.465Z" fill="white"/>
</g>
<defs>
<filter id="filter0_d" x="0" y="0" width="200" height="200" filterUnits="userSpaceOnUse" color-interpolation-filters="sRGB">
<feFlood flood-opacity="0" result="BackgroundImageFix"/>
<feColorMatrix in="SourceAlpha" type="matrix" values="0 0 0 0 0 0 0 0 0 0 0 0 0 0 0 0 0 0 127 0"/>
<feOffset/>
<feGaussianBlur stdDeviation="5"/>
<feColorMatrix type="matrix" values="0 0 0 0 0 0 0 0 0 0 0 0 0 0 0 0 0 0 0.5 0"/>
<feBlend mode="normal" in2="BackgroundImageFix" result="effect1_dropShadow"/>
<feBlend mode="normal" in="SourceGraphic" in2="effect1_dropShadow" result="shape"/>
</filter>
</defs>
</svg>
